<mxfile host="app.diagrams.net" modified="2022-07-27T04:19:26.445Z" agent="5.0 (X11; Linux x86_64) AppleWebKit/537.36 (KHTML, like Gecko) Chrome/103.0.0.0 Safari/537.36" etag="pPN5r7p5nb7CQcd9q2YN" version="20.2.0" type="github">
  <diagram id="BnmF_AK0YvOshNtcrw-g" name="Página-1">
    <mxGraphModel dx="3195" dy="1173" grid="0" gridSize="10" guides="1" tooltips="1" connect="1" arrows="1" fold="1" page="0" pageScale="1" pageWidth="827" pageHeight="1169" math="0" shadow="0">
      <root>
        <mxCell id="0" />
        <mxCell id="1" parent="0" />
        <mxCell id="cyFt_1vXVeOcTQ0V9GpX-9" value="" style="edgeStyle=orthogonalEdgeStyle;rounded=0;orthogonalLoop=1;jettySize=auto;html=1;" edge="1" parent="1" source="cyFt_1vXVeOcTQ0V9GpX-1" target="cyFt_1vXVeOcTQ0V9GpX-8">
          <mxGeometry relative="1" as="geometry" />
        </mxCell>
        <mxCell id="cyFt_1vXVeOcTQ0V9GpX-63" style="edgeStyle=orthogonalEdgeStyle;rounded=0;orthogonalLoop=1;jettySize=auto;html=1;exitX=1;exitY=0.5;exitDx=0;exitDy=0;entryX=0.5;entryY=1;entryDx=0;entryDy=0;fontSize=10;startArrow=none;startFill=0;endArrow=classic;endFill=1;strokeWidth=1;" edge="1" parent="1" source="cyFt_1vXVeOcTQ0V9GpX-1" target="cyFt_1vXVeOcTQ0V9GpX-61">
          <mxGeometry relative="1" as="geometry" />
        </mxCell>
        <mxCell id="cyFt_1vXVeOcTQ0V9GpX-1" value="merge ( &lt;b&gt;&lt;font color=&quot;#ffb570&quot;&gt;originCodeJson&lt;/font&gt;&lt;/b&gt;, &lt;b&gt;&lt;font color=&quot;#ffb570&quot;&gt;userCodeJson&lt;/font&gt;&lt;/b&gt; )" style="rounded=0;whiteSpace=wrap;html=1;" vertex="1" parent="1">
          <mxGeometry x="813" y="46" width="154" height="60" as="geometry" />
        </mxCell>
        <mxCell id="cyFt_1vXVeOcTQ0V9GpX-60" style="edgeStyle=orthogonalEdgeStyle;rounded=0;orthogonalLoop=1;jettySize=auto;html=1;exitX=1;exitY=0.5;exitDx=0;exitDy=0;fontSize=10;startArrow=none;startFill=0;endArrow=classic;endFill=1;strokeWidth=1;" edge="1" parent="1" source="cyFt_1vXVeOcTQ0V9GpX-2" target="cyFt_1vXVeOcTQ0V9GpX-1">
          <mxGeometry relative="1" as="geometry" />
        </mxCell>
        <mxCell id="cyFt_1vXVeOcTQ0V9GpX-65" style="edgeStyle=orthogonalEdgeStyle;rounded=0;orthogonalLoop=1;jettySize=auto;html=1;exitX=0.5;exitY=0;exitDx=0;exitDy=0;entryX=0.5;entryY=0;entryDx=0;entryDy=0;fontSize=10;startArrow=none;startFill=0;endArrow=classic;endFill=1;strokeWidth=1;dashed=1;fillColor=#f5f5f5;strokeColor=#666666;" edge="1" parent="1" source="cyFt_1vXVeOcTQ0V9GpX-2" target="cyFt_1vXVeOcTQ0V9GpX-61">
          <mxGeometry relative="1" as="geometry" />
        </mxCell>
        <mxCell id="cyFt_1vXVeOcTQ0V9GpX-2" value="Transforma Codigo Usuário em JSON&lt;br&gt;" style="whiteSpace=wrap;html=1;rounded=0;fillColor=#fff2cc;strokeColor=#d6b656;" vertex="1" parent="1">
          <mxGeometry x="634" y="46" width="120" height="60" as="geometry" />
        </mxCell>
        <mxCell id="cyFt_1vXVeOcTQ0V9GpX-7" value="" style="edgeStyle=orthogonalEdgeStyle;rounded=0;orthogonalLoop=1;jettySize=auto;html=1;strokeWidth=1;" edge="1" parent="1" source="cyFt_1vXVeOcTQ0V9GpX-4" target="cyFt_1vXVeOcTQ0V9GpX-6">
          <mxGeometry relative="1" as="geometry" />
        </mxCell>
        <mxCell id="cyFt_1vXVeOcTQ0V9GpX-62" value="" style="edgeStyle=orthogonalEdgeStyle;rounded=0;orthogonalLoop=1;jettySize=auto;html=1;fontSize=10;startArrow=none;startFill=0;endArrow=classic;endFill=1;strokeWidth=1;" edge="1" parent="1" source="cyFt_1vXVeOcTQ0V9GpX-4" target="cyFt_1vXVeOcTQ0V9GpX-61">
          <mxGeometry relative="1" as="geometry" />
        </mxCell>
        <mxCell id="cyFt_1vXVeOcTQ0V9GpX-4" value="Identifica partes do código e adiciona tag .ejs (&amp;lt;% vars.top%&amp;gt;" style="whiteSpace=wrap;html=1;rounded=0;" vertex="1" parent="1">
          <mxGeometry x="1175" y="-38.5" width="364" height="60" as="geometry" />
        </mxCell>
        <mxCell id="cyFt_1vXVeOcTQ0V9GpX-32" style="edgeStyle=orthogonalEdgeStyle;rounded=0;orthogonalLoop=1;jettySize=auto;html=1;exitX=0.5;exitY=1;exitDx=0;exitDy=0;entryX=0.5;entryY=0;entryDx=0;entryDy=0;startArrow=classic;startFill=1;endArrow=none;endFill=0;" edge="1" parent="1" source="cyFt_1vXVeOcTQ0V9GpX-6" target="cyFt_1vXVeOcTQ0V9GpX-29">
          <mxGeometry relative="1" as="geometry" />
        </mxCell>
        <mxCell id="cyFt_1vXVeOcTQ0V9GpX-37" value="" style="edgeStyle=orthogonalEdgeStyle;rounded=0;orthogonalLoop=1;jettySize=auto;html=1;startArrow=none;startFill=0;endArrow=classic;endFill=1;strokeWidth=1;" edge="1" parent="1" source="cyFt_1vXVeOcTQ0V9GpX-6" target="cyFt_1vXVeOcTQ0V9GpX-36">
          <mxGeometry relative="1" as="geometry" />
        </mxCell>
        <mxCell id="cyFt_1vXVeOcTQ0V9GpX-6" value="CRIA Template&lt;br&gt;&lt;font style=&quot;font-size: 10px;&quot;&gt;(node_modules/atlantjs/temp)&lt;/font&gt;&lt;br&gt;.ejs" style="whiteSpace=wrap;html=1;rounded=0;fillColor=#dae8fc;strokeColor=#6c8ebf;" vertex="1" parent="1">
          <mxGeometry x="2255" y="-38.5" width="146" height="60" as="geometry" />
        </mxCell>
        <mxCell id="cyFt_1vXVeOcTQ0V9GpX-11" value="" style="edgeStyle=orthogonalEdgeStyle;rounded=0;orthogonalLoop=1;jettySize=auto;html=1;strokeWidth=1;" edge="1" parent="1" source="cyFt_1vXVeOcTQ0V9GpX-8" target="cyFt_1vXVeOcTQ0V9GpX-10">
          <mxGeometry relative="1" as="geometry" />
        </mxCell>
        <mxCell id="cyFt_1vXVeOcTQ0V9GpX-8" value="Código Origem em JSON" style="whiteSpace=wrap;html=1;rounded=0;fillColor=#fff2cc;strokeColor=#d6b656;" vertex="1" parent="1">
          <mxGeometry x="975" y="122.5" width="120" height="60" as="geometry" />
        </mxCell>
        <mxCell id="cyFt_1vXVeOcTQ0V9GpX-13" value="" style="edgeStyle=orthogonalEdgeStyle;rounded=0;orthogonalLoop=1;jettySize=auto;html=1;strokeWidth=1;" edge="1" parent="1" source="cyFt_1vXVeOcTQ0V9GpX-10" target="cyFt_1vXVeOcTQ0V9GpX-12">
          <mxGeometry relative="1" as="geometry" />
        </mxCell>
        <mxCell id="cyFt_1vXVeOcTQ0V9GpX-10" value="Identifica partes do código através de tags &lt;br&gt;(// &amp;lt;vars.top&amp;gt;&lt;br&gt;// &amp;lt;/vars.top&amp;gt;)" style="whiteSpace=wrap;html=1;rounded=0;" vertex="1" parent="1">
          <mxGeometry x="1186" y="122.5" width="429" height="60" as="geometry" />
        </mxCell>
        <mxCell id="cyFt_1vXVeOcTQ0V9GpX-30" value="" style="edgeStyle=orthogonalEdgeStyle;rounded=0;orthogonalLoop=1;jettySize=auto;html=1;strokeWidth=1;" edge="1" parent="1" source="cyFt_1vXVeOcTQ0V9GpX-12" target="cyFt_1vXVeOcTQ0V9GpX-29">
          <mxGeometry relative="1" as="geometry" />
        </mxCell>
        <mxCell id="cyFt_1vXVeOcTQ0V9GpX-12" value="Extrai partes capturadas, transformando-as em objetos JSON&lt;br&gt;( vars: { top: [ &quot;const teste: string&quot;, &quot;const hello: number&quot;] }" style="whiteSpace=wrap;html=1;rounded=0;" vertex="1" parent="1">
          <mxGeometry x="1695" y="122.5" width="360" height="60" as="geometry" />
        </mxCell>
        <mxCell id="cyFt_1vXVeOcTQ0V9GpX-22" value="" style="edgeStyle=orthogonalEdgeStyle;rounded=0;orthogonalLoop=1;jettySize=auto;html=1;" edge="1" parent="1" source="cyFt_1vXVeOcTQ0V9GpX-17" target="cyFt_1vXVeOcTQ0V9GpX-21">
          <mxGeometry relative="1" as="geometry" />
        </mxCell>
        <mxCell id="cyFt_1vXVeOcTQ0V9GpX-51" value="" style="edgeStyle=orthogonalEdgeStyle;rounded=0;orthogonalLoop=1;jettySize=auto;html=1;fontSize=12;startArrow=classic;startFill=1;endArrow=none;endFill=0;strokeWidth=1;" edge="1" parent="1" source="cyFt_1vXVeOcTQ0V9GpX-17" target="cyFt_1vXVeOcTQ0V9GpX-50">
          <mxGeometry relative="1" as="geometry" />
        </mxCell>
        <mxCell id="cyFt_1vXVeOcTQ0V9GpX-55" style="edgeStyle=orthogonalEdgeStyle;rounded=0;orthogonalLoop=1;jettySize=auto;html=1;exitX=0.5;exitY=1;exitDx=0;exitDy=0;entryX=0;entryY=0.5;entryDx=0;entryDy=0;fontSize=12;startArrow=none;startFill=0;endArrow=classic;endFill=1;strokeWidth=1;dashed=1;fillColor=#f5f5f5;strokeColor=#666666;" edge="1" parent="1" source="cyFt_1vXVeOcTQ0V9GpX-17" target="cyFt_1vXVeOcTQ0V9GpX-25">
          <mxGeometry relative="1" as="geometry" />
        </mxCell>
        <mxCell id="cyFt_1vXVeOcTQ0V9GpX-64" style="edgeStyle=orthogonalEdgeStyle;rounded=0;orthogonalLoop=1;jettySize=auto;html=1;exitX=0.5;exitY=1;exitDx=0;exitDy=0;entryX=0.5;entryY=1;entryDx=0;entryDy=0;fontSize=10;startArrow=none;startFill=0;endArrow=classic;endFill=1;strokeWidth=1;dashed=1;fillColor=#f5f5f5;strokeColor=#666666;" edge="1" parent="1" source="cyFt_1vXVeOcTQ0V9GpX-17" target="cyFt_1vXVeOcTQ0V9GpX-8">
          <mxGeometry relative="1" as="geometry">
            <Array as="points">
              <mxPoint x="91" y="313" />
              <mxPoint x="1035" y="313" />
            </Array>
          </mxGeometry>
        </mxCell>
        <mxCell id="cyFt_1vXVeOcTQ0V9GpX-17" value="Transforma Código Origem em JSON" style="whiteSpace=wrap;html=1;rounded=0;fillColor=#fff2cc;strokeColor=#d6b656;" vertex="1" parent="1">
          <mxGeometry x="31" y="46" width="120" height="60" as="geometry" />
        </mxCell>
        <mxCell id="cyFt_1vXVeOcTQ0V9GpX-24" value="" style="edgeStyle=orthogonalEdgeStyle;rounded=0;orthogonalLoop=1;jettySize=auto;html=1;" edge="1" parent="1" source="cyFt_1vXVeOcTQ0V9GpX-21" target="cyFt_1vXVeOcTQ0V9GpX-23">
          <mxGeometry relative="1" as="geometry" />
        </mxCell>
        <mxCell id="cyFt_1vXVeOcTQ0V9GpX-21" value="CAPTURA código&lt;br&gt;[usuário]&lt;br&gt;.ts" style="whiteSpace=wrap;html=1;rounded=0;fillColor=#dae8fc;strokeColor=#6c8ebf;" vertex="1" parent="1">
          <mxGeometry x="231" y="46" width="120" height="60" as="geometry" />
        </mxCell>
        <mxCell id="cyFt_1vXVeOcTQ0V9GpX-26" value="Não" style="edgeStyle=orthogonalEdgeStyle;rounded=0;orthogonalLoop=1;jettySize=auto;html=1;" edge="1" parent="1" source="cyFt_1vXVeOcTQ0V9GpX-23" target="cyFt_1vXVeOcTQ0V9GpX-25">
          <mxGeometry relative="1" as="geometry" />
        </mxCell>
        <mxCell id="cyFt_1vXVeOcTQ0V9GpX-28" value="Sim" style="edgeStyle=orthogonalEdgeStyle;rounded=0;orthogonalLoop=1;jettySize=auto;html=1;" edge="1" parent="1" source="cyFt_1vXVeOcTQ0V9GpX-23" target="cyFt_1vXVeOcTQ0V9GpX-2">
          <mxGeometry relative="1" as="geometry">
            <mxPoint x="591" y="76" as="targetPoint" />
          </mxGeometry>
        </mxCell>
        <mxCell id="cyFt_1vXVeOcTQ0V9GpX-23" value="confitoDeArquivos?" style="rhombus;whiteSpace=wrap;html=1;rounded=0;" vertex="1" parent="1">
          <mxGeometry x="421" y="6" width="140" height="140" as="geometry" />
        </mxCell>
        <mxCell id="cyFt_1vXVeOcTQ0V9GpX-25" value="Cria Código&lt;br&gt;[Local]&lt;br&gt;.ts" style="whiteSpace=wrap;html=1;rounded=0;fillColor=#dae8fc;strokeColor=#6c8ebf;fontStyle=1" vertex="1" parent="1">
          <mxGeometry x="431" y="206" width="120" height="60" as="geometry" />
        </mxCell>
        <mxCell id="cyFt_1vXVeOcTQ0V9GpX-29" value="Alterações em Tags .ejs" style="whiteSpace=wrap;html=1;rounded=0;" vertex="1" parent="1">
          <mxGeometry x="2268" y="122.5" width="120" height="60" as="geometry" />
        </mxCell>
        <mxCell id="cyFt_1vXVeOcTQ0V9GpX-36" value="Substitui Código&lt;br&gt;[Local]&lt;br&gt;.ts" style="whiteSpace=wrap;html=1;rounded=0;fillColor=#dae8fc;strokeColor=#6c8ebf;fontStyle=1" vertex="1" parent="1">
          <mxGeometry x="2494" y="-38.5" width="120" height="60" as="geometry" />
        </mxCell>
        <mxCell id="cyFt_1vXVeOcTQ0V9GpX-41" style="edgeStyle=orthogonalEdgeStyle;rounded=0;orthogonalLoop=1;jettySize=auto;html=1;exitX=1;exitY=0.5;exitDx=0;exitDy=0;dashed=1;startArrow=none;startFill=0;endArrow=none;endFill=0;strokeWidth=1;dashPattern=1 2;" edge="1" parent="1" source="cyFt_1vXVeOcTQ0V9GpX-40" target="cyFt_1vXVeOcTQ0V9GpX-23">
          <mxGeometry relative="1" as="geometry" />
        </mxCell>
        <mxCell id="cyFt_1vXVeOcTQ0V9GpX-40" value="&lt;p style=&quot;line-height: 1.2;&quot;&gt;&lt;/p&gt;&lt;p&gt;&lt;span style=&quot;background-color: initial; font-weight: normal; line-height: 1;&quot;&gt;&lt;font style=&quot;font-size: 12px;&quot;&gt;Ao salvar no diretório do usuário, verifica se tem algum arquivo com o mesmo nome, se sim, realiza o merge entre o arquivo de origem, e o arquivo do usuário. Se não, apenas cria o diretório com o arquivo.&lt;/font&gt;&lt;/span&gt;&lt;/p&gt;&lt;p&gt;&lt;/p&gt;" style="text;html=1;strokeColor=none;fillColor=none;spacing=5;spacingTop=-20;whiteSpace=wrap;overflow=hidden;rounded=0;align=left;" vertex="1" parent="1">
          <mxGeometry x="187" y="-237" width="190" height="120" as="geometry" />
        </mxCell>
        <mxCell id="cyFt_1vXVeOcTQ0V9GpX-44" value="" style="edgeStyle=orthogonalEdgeStyle;rounded=0;orthogonalLoop=1;jettySize=auto;html=1;fontSize=12;startArrow=none;startFill=0;endArrow=classic;endFill=1;strokeWidth=1;" edge="1" parent="1" source="cyFt_1vXVeOcTQ0V9GpX-42" target="cyFt_1vXVeOcTQ0V9GpX-43">
          <mxGeometry relative="1" as="geometry" />
        </mxCell>
        <mxCell id="cyFt_1vXVeOcTQ0V9GpX-59" value="" style="edgeStyle=orthogonalEdgeStyle;rounded=0;orthogonalLoop=1;jettySize=auto;html=1;fontSize=10;startArrow=none;startFill=0;endArrow=classic;endFill=1;strokeWidth=1;" edge="1" parent="1" source="cyFt_1vXVeOcTQ0V9GpX-42" target="cyFt_1vXVeOcTQ0V9GpX-58">
          <mxGeometry relative="1" as="geometry" />
        </mxCell>
        <mxCell id="cyFt_1vXVeOcTQ0V9GpX-42" value="Roda Comando CLI" style="whiteSpace=wrap;html=1;fontSize=12;" vertex="1" parent="1">
          <mxGeometry x="-772.5" y="46" width="120" height="60" as="geometry" />
        </mxCell>
        <mxCell id="cyFt_1vXVeOcTQ0V9GpX-49" value="" style="edgeStyle=orthogonalEdgeStyle;rounded=0;orthogonalLoop=1;jettySize=auto;html=1;fontSize=12;startArrow=none;startFill=0;endArrow=classic;endFill=1;strokeWidth=1;" edge="1" parent="1" source="cyFt_1vXVeOcTQ0V9GpX-43" target="cyFt_1vXVeOcTQ0V9GpX-48">
          <mxGeometry relative="1" as="geometry" />
        </mxCell>
        <mxCell id="cyFt_1vXVeOcTQ0V9GpX-53" value="" style="edgeStyle=orthogonalEdgeStyle;rounded=0;orthogonalLoop=1;jettySize=auto;html=1;fontSize=12;startArrow=none;startFill=0;endArrow=classic;endFill=1;strokeWidth=1;" edge="1" parent="1" source="cyFt_1vXVeOcTQ0V9GpX-43" target="cyFt_1vXVeOcTQ0V9GpX-52">
          <mxGeometry relative="1" as="geometry" />
        </mxCell>
        <mxCell id="cyFt_1vXVeOcTQ0V9GpX-43" value="inContext?" style="rhombus;whiteSpace=wrap;html=1;" vertex="1" parent="1">
          <mxGeometry x="-509" y="36" width="80" height="80" as="geometry" />
        </mxCell>
        <mxCell id="cyFt_1vXVeOcTQ0V9GpX-46" style="edgeStyle=orthogonalEdgeStyle;rounded=0;orthogonalLoop=1;jettySize=auto;html=1;exitX=1;exitY=0.5;exitDx=0;exitDy=0;dashed=1;fontSize=12;startArrow=none;startFill=0;endArrow=none;endFill=0;strokeWidth=1;dashPattern=1 1;" edge="1" parent="1" source="cyFt_1vXVeOcTQ0V9GpX-45" target="cyFt_1vXVeOcTQ0V9GpX-43">
          <mxGeometry relative="1" as="geometry" />
        </mxCell>
        <mxCell id="cyFt_1vXVeOcTQ0V9GpX-45" value="&lt;p style=&quot;line-height: 1.2;&quot;&gt;&lt;/p&gt;&lt;p&gt;&lt;span style=&quot;background-color: initial; font-weight: normal; line-height: 1;&quot;&gt;&lt;font style=&quot;font-size: 12px;&quot;&gt;Ao rodar por exemplo atlantjs create:component num projeto backend, retornará um mensagem informando que components são indicados para projetos front-end, e se ele está certo que instalará num projeto backend&lt;/font&gt;&lt;/span&gt;&lt;/p&gt;&lt;p&gt;&lt;/p&gt;" style="text;html=1;strokeColor=none;fillColor=none;spacing=5;spacingTop=-20;whiteSpace=wrap;overflow=hidden;rounded=0;align=left;" vertex="1" parent="1">
          <mxGeometry x="-694" y="-198" width="190" height="120" as="geometry" />
        </mxCell>
        <mxCell id="cyFt_1vXVeOcTQ0V9GpX-48" value="youSure?" style="whiteSpace=wrap;html=1;" vertex="1" parent="1">
          <mxGeometry x="-529" y="206" width="120" height="60" as="geometry" />
        </mxCell>
        <mxCell id="cyFt_1vXVeOcTQ0V9GpX-50" value="CAPTURA template&lt;br&gt;[origem]&lt;br&gt;.ejs" style="whiteSpace=wrap;html=1;fillColor=#dae8fc;strokeColor=#6c8ebf;rounded=0;" vertex="1" parent="1">
          <mxGeometry x="-169" y="46" width="120" height="60" as="geometry" />
        </mxCell>
        <mxCell id="cyFt_1vXVeOcTQ0V9GpX-54" style="edgeStyle=orthogonalEdgeStyle;rounded=0;orthogonalLoop=1;jettySize=auto;html=1;exitX=1;exitY=0.5;exitDx=0;exitDy=0;entryX=0;entryY=0.5;entryDx=0;entryDy=0;fontSize=12;startArrow=none;startFill=0;endArrow=classic;endFill=1;strokeWidth=1;" edge="1" parent="1" source="cyFt_1vXVeOcTQ0V9GpX-52" target="cyFt_1vXVeOcTQ0V9GpX-50">
          <mxGeometry relative="1" as="geometry" />
        </mxCell>
        <mxCell id="cyFt_1vXVeOcTQ0V9GpX-52" value="Alterações CLI&lt;br&gt;[tags cli]" style="whiteSpace=wrap;html=1;" vertex="1" parent="1">
          <mxGeometry x="-369" y="46" width="120" height="60" as="geometry" />
        </mxCell>
        <mxCell id="cyFt_1vXVeOcTQ0V9GpX-58" value="create:backend &amp;lt;name&amp;gt;&lt;br&gt;create:module &amp;lt;name&amp;gt;&lt;br&gt;create:frontend &amp;lt;name&amp;gt;&lt;br&gt;create:component &amp;lt;name&amp;gt;&lt;br&gt;create:monolito &amp;lt;name&amp;gt;&lt;br&gt;create:integration &amp;lt;name&amp;gt;&lt;br&gt;&lt;br&gt;delete:backend &amp;lt;name&amp;gt;&lt;br&gt;delete:module &amp;lt;name&amp;gt;&lt;br&gt;delete:frontend &amp;lt;name&amp;gt;&lt;br&gt;delete:component &amp;lt;name&amp;gt;&lt;br&gt;delete:monolito &amp;lt;name&amp;gt;&lt;br&gt;delete:integration &amp;lt;name&amp;gt;&lt;br&gt;&lt;br&gt;--just&lt;br&gt;--without&lt;br&gt;--repo&lt;br&gt;" style="whiteSpace=wrap;html=1;" vertex="1" parent="1">
          <mxGeometry x="-816" y="186" width="207" height="284" as="geometry" />
        </mxCell>
        <mxCell id="cyFt_1vXVeOcTQ0V9GpX-61" value="Código Usuário em JSON" style="whiteSpace=wrap;html=1;rounded=0;fillColor=#fff2cc;strokeColor=#d6b656;" vertex="1" parent="1">
          <mxGeometry x="975" y="-38.5" width="120" height="60" as="geometry" />
        </mxCell>
      </root>
    </mxGraphModel>
  </diagram>
</mxfile>
